<svg id="Layer_1" data-name="Layer 1" xmlns="http://www.w3.org/2000/svg" viewBox="0 0 1066.95 281.61"><defs><style>.cls-1{fill:#ff7626;}.cls-2{fill:#575757;}.cls-3{fill:#4f5754;}.cls-4{fill:#545355;}</style></defs><rect x="125.36" y="76.29" width="28.85" height="25.49"/><path d="M226.19,266.34c-8.35,0-7.94-4.28-8.37-9.82-2.1-27.62-3.92-55.26-6.92-82.78-.9-8.33,1.29-12.07,8.3-16.25,30-17.84,39.72-58.35,22.35-88.5-3.76-6.52-8.66-9.65-16.18-9.38-11.5.41-22.5,3.53-33,7.55-16.53,6.35-30.47,2.52-43.47-8-9.67-7.79-16.54-18-18.92-29.89-3.56-17.67-18.89-20.14-32.75-8.5C88.33,28.3,84,38.36,81.84,50.22c-2.45-1.87-4-3.09-5.57-4.25C58.35,32.84,43.53,38.35,38.52,59.83c-3.56,15.25-1.09,29.8,4.64,44,8.26,20.42,26,30.94,47.67,28,5.83-.8,11.45-3.1,18.73-5.15C101.8,149.26,94.18,170.51,87.3,192c-2,6.4-4.53,6.49-10.43,5.08-19.73-4.7-37.33,0-50.63,15.74s-15.77,33.69-7.68,52.44c7.94,18.38,22.45,29.46,42.6,29.68,57.1.61,114.2.27,171.29.26,2.54,0,5.43.58,7-2.5C243.41,284.55,235,266.3,226.19,266.34Zm9.55-189c9.73,16.23,8.25,41.45-2.94,52.53-2.27-2.4-.62-4.53-.07-7,1.9-8.54,2.79-17.58-.81-25.56C228.21,89.1,231.57,83.62,235.74,77.34Zm-9.83-6.63c3.36,3.14,0,6.57-2.06,11.8.47-8.37-5.16-8.87-11.63-11.67C218.4,69.44,222.55,67.58,225.91,70.71ZM191.37,288.26h0l-19.9-.57a15.17,15.17,0,0,1,0-2.94c.68-3.29-.84-9.82.95-9.41,5.94,1.36,11.81-4.92,16.85-.34C193,278.34,194.74,283.21,191.37,288.26Zm10.1-.16c-.7-3.91-1.09-7.9-2.2-11.69-1.4-4.77-3-9.09-9.87-8.87-3,.1-9.25,3.82-9.75-2.51s-4.8-13.5,2-19.66,11.63-13.7,11.92-23.34c.11-3.68-.07-7.34-4.27-10.85-3.28,9-3.15,19.35-11.52,25.91-3.67-9.47-2.41-20.19-10.87-28.17,1.52,20.36,3.05,40.73,4.64,62.09-3-3.3-5-7.47-7.35-7.72-12.11-1.27-8.47-9.51-8.78-16.78-.6-13.89-6-25.12-20.21-30.14-4.7-1-9.4-1.9-13.84,1.41,2.11,3.28,5.06,2,7.4,2.68,19.53,11.52,22.43,20,14.15,42.77-1.8,5-.64,6.93,4.51,6.66,15.87-.83,16.9.34,15.74,17.89h0l-104,.24c-11.31-3.32-21.87-7.74-28.91-18-5.24-7.64-8.66-15.7-7.36-25.2h0c-.06-27.31,25.54-47.53,51.39-40.48,8,2.17,13.24,7.28,11.95,15.86C85,228.34,80,233.28,70.81,231.92c-13.51,2.42-21,8.55-21.7,19.19C48.53,260,52.44,267,60.5,271.42c2.2,1.22,4.38,1.2,6.68,1.11,2.19-5.94,4.43-11.86,6.56-17.81,2.78-7.75,5-15.28,13.18-20.11a16.13,16.13,0,0,0,7-19.42c-3.51-9.19-.68-16.76,2.29-24.79s6-16.08,9-24.12c1.23-7.9,4.44-15.17,7.21-22.58h0q3.72-11.4,7.42-22.79c.72-2.22,1.88-4.63-.54-6.38-2.15-1.56-4.39-.48-6.58.54-5.42,2.53-10.72,5.5-16.39,7.27-19.38,6-36.28-1.28-44.84-19.59-6.81-14.59-9.5-29.9-3.91-45.57,3.7-10.38,11.08-12.84,20.42-7a67.88,67.88,0,0,1,11.45,9.6c24.39,24.22,53.1,31.65,86.2,22.64,3.85-1,7.79-1.77,11.69-2.64,3.19-2.79,7.45-2,11.57-3.89C187.13,90.09,198,89.3,206.31,91.73c5.55,1.62,13.07-2.06,16.62,4.06,4.27,7.37,4.37,15.83,2.74,24.35-6.38,33.53-31.07,47.58-63,35.73-2.87-1.06-5.53-4-10-1.1,11.05,11.63,24.67,14.82,39.12,12.31,9.06-1.57,11.57.16,11.68,9.23.16,12.31,1.77,24.61,2.76,36.92a.49.49,0,0,1,0,.12q2.29,26.07,4.58,52.09c-.35,7.65,1.26,11.29,10.73,9.18,9.91-2.21,9.59,6.4,9.84,13.14Zm-138.61-25c-9.09-10.38-7-17.53,5.71-22.76C70,248.57,64.12,254.52,62.86,263.11Z" transform="translate(-13.96 -13.68)"/><path class="cls-1" d="M174.85,135.32c13.37-15.65,14.36-37.78,2.48-55.51-3.9.87-7.84,1.59-11.69,2.64-33.1,9-61.81,1.58-86.2-22.64A67.88,67.88,0,0,0,68,50.21c-9.34-5.87-16.72-3.41-20.42,7-5.59,15.67-2.9,31,3.91,45.57,8.56,18.31,25.46,25.62,44.84,19.59,5.67-1.77,11-4.74,16.39-7.27,2.19-1,4.43-2.1,6.58-.54,2.42,1.75,1.26,4.16.54,6.38q-3.72,11.39-7.42,22.79h0c2.38,1.16,4.76,2.34,7.16,3.47A46.14,46.14,0,0,0,174.85,135.32ZM162.08,91.91c2.72.83,5.23,2.13,4.55,5.39-.58,2.8-3.07,3.11-5.59,2.64-5.12-.94-8.79.54-8.73,6.33,0,3.11,2.56,7.42-2.66,7.7-5.62.29-4.78-5.22-5.78-8.42C143.94,96.13,153.4,89.26,162.08,91.91Z" transform="translate(-13.96 -13.68)"/><path class="cls-1" d="M97.9,267.87c10.2-8.2,14.69-20.08,10.82-32.21-5-15.56-2.9-30.12.82-45.08,2.17-8.71,2.31-17.13-4.33-24.3-3,8-6,16.07-9,24.12s-5.8,15.6-2.29,24.79a16.13,16.13,0,0,1-7,19.42c-8.19,4.83-10.4,12.36-13.18,20.11-2.13,6-4.37,11.87-6.56,17.81h0C78.36,277.22,88.87,275.12,97.9,267.87Z" transform="translate(-13.96 -13.68)"/><path class="cls-1" d="M45.87,228.35C47.94,221.44,52,217.17,59.61,218c8.09.9,11.25,6.22,11.2,13.9C80,233.28,85,228.34,86.24,220.2c1.29-8.58-4-13.69-11.95-15.86-25.85-7.05-51.45,13.17-51.39,40.48h0C35,245.51,42.47,239.69,45.87,228.35Z" transform="translate(-13.96 -13.68)"/><path class="cls-1" d="M200.31,227c-7,7.48-7.06,16.62-2.81,25.71,2.76,5.92,8.71,8.67,13.29,12.78q-2.28-26-4.58-52.09a.71.71,0,0,0,0-.14C206.17,218.61,204.2,222.78,200.31,227Z" transform="translate(-13.96 -13.68)"/><path class="cls-2" d="M198,129.28c1.91-.68,3.84-1.46,3.62-3.94s-1.86-3.44-4.08-3.36-3.76,1.45-3.62,3.77S195.75,129.05,198,129.28Z" transform="translate(-13.96 -13.68)"/><path class="cls-3" d="M210.44,130.2c2.35-.2,3.28-1.8,3.43-4.64a3.71,3.71,0,0,0-3.74-3,3.44,3.44,0,0,0-3.83,3.5C206.22,128.58,207.53,130.44,210.44,130.2Z" transform="translate(-13.96 -13.68)"/><path class="cls-4" d="M197.8,137.85a3.54,3.54,0,0,0,4.09,3.36,3.7,3.7,0,0,0,3.64-4,3.78,3.78,0,0,0-4.21-3.26C199,134.14,197.57,135.51,197.8,137.85Z" transform="translate(-13.96 -13.68)"/><path d="M336.49,88.84q6.27-3.6,17.86-3.6a76.94,76.94,0,0,1,12.54.94q5.7,1,10.45,1.91a42.89,42.89,0,0,0,8.17,1q8,0,11.88-3.8a13.23,13.23,0,0,0,3.89-9.88q0-8.55-10.35-13.69t-26.7-5.12a83.09,83.09,0,0,0-15.48,1.52,79.33,79.33,0,0,0-15.87,4.75,51.54,51.54,0,0,0-14.06,8.64,40.06,40.06,0,0,0-10,13.11,41.44,41.44,0,0,0-3.71,18.15,28.07,28.07,0,0,0,3.8,14.82q3.81,6.27,12.16,10.73T343,136.34a120.85,120.85,0,0,1,17.67,6.28c3.93,1.89,6.56,3.8,7.89,5.7a11,11,0,0,1,2,6.46,10.61,10.61,0,0,1-5.22,9.31Q360,167.51,349,167.51a75.37,75.37,0,0,1-15.48-1.71A70.93,70.93,0,0,0,319,164.09q-9.3,0-13.39,3.23T301.53,177a12.6,12.6,0,0,0,4.66,10.16A33.18,33.18,0,0,0,318,193.25a75.85,75.85,0,0,0,14.82,2.95q7.69.75,14,.76,15,0,26.32-5a41.23,41.23,0,0,0,17.67-14,35.19,35.19,0,0,0,6.36-20.8,32.42,32.42,0,0,0-3.61-15.39q-3.6-6.84-12.16-12.26t-23.56-10a131.55,131.55,0,0,1-18-7q-5.88-3-7.69-5.88a11.44,11.44,0,0,1-1.81-6.28Q330.22,92.47,336.49,88.84Z" transform="translate(-13.96 -13.68)"/><path d="M498,79q-11.21,0-19.38,18.33t-15.39,57.48h-.76q-11-37.25-23.37-55.48T414.2,81.06a12.15,12.15,0,0,0-9.4,3.8q-3.53,3.8-3.52,10.64,0,13.86,13,32.87,12.82,18.72,37.56,43.36a172.31,172.31,0,0,0-18.75,19,96,96,0,0,0-12.26,18.06q-4.19,8.35-4.18,14.43,0,11,10.26,11,9.49,0,21.47-14.16t28.88-44.74q6.64-11.79,12.26-23.94t9.88-23.47a208.74,208.74,0,0,0,6.65-20.33A60.27,60.27,0,0,0,508.44,93q0-6.66-2.56-10.36T498,79Z" transform="translate(-13.96 -13.68)"/><path d="M597.46,83.91q-7.89-6.66-19.67-6.65a33.6,33.6,0,0,0-20.14,6.93,39.28,39.28,0,0,0-12.6,15.8c0-.76.06-1.5.06-2.21q0-9.69-2.18-14.63t-8.27-4.94q-7.21,0-10.83,9t-5.51,24.42q-.95,8.16-1.61,18.14t-1.05,19.86q-.37,9.87-.38,17.86,0,15.57,3.61,22.13t10.64,6.56a11.19,11.19,0,0,0,9.6-4.94q3.51-4.95,4.27-16.34a105.83,105.83,0,0,0,.48-12.64q-.11-7.5-.1-15.11a118.29,118.29,0,0,1,.57-12.72q2.08-15.21,8.36-23.47t15.58-8.26q17.48,0,17.48,26.6,0,7.78-.85,17.38t-1.81,18.81q-.95,9.23-1,15.67,0,6.09,2.66,9.7a8.89,8.89,0,0,0,7.6,3.61,12.63,12.63,0,0,0,8.55-3.14q3.62-3.14,5.89-9.59A95.06,95.06,0,0,0,610,168.55q1.43-8.07,2.28-17.86t.85-19.85q0-16.35-3.89-28.31T597.46,83.91Z" transform="translate(-13.96 -13.68)"/><path d="M720.77,179.38q2-10.55,2-29.54,0-13.68-1.23-28.6t-3.14-28.69A240.82,240.82,0,0,0,714,68.71q-2.67-11.22-6.65-16.63a12.38,12.38,0,0,0-10.45-5.41,7.16,7.16,0,0,0-6.65,3.51q-2.1,3.52-2.09,10a99.77,99.77,0,0,0,1.05,12.44q1,7.89,2.75,16.63,1.34,6.8,2.66,13a46.33,46.33,0,0,0-12.45-10.17,39.23,39.23,0,0,0-19.28-4.57q-19.38,0-29.73,13.21t-10.36,41.7q0,28.7,10.45,42.66t29.07,14a38.17,38.17,0,0,0,22.89-7,43.19,43.19,0,0,0,12-13.15q.13,9,1.75,13.54,2.09,5.88,8,5.89a10.57,10.57,0,0,0,8.27-4.18Q718.77,189.93,720.77,179.38Zm-26.41-18.33A24.67,24.67,0,0,1,685.05,172a23.89,23.89,0,0,1-12.64,3.52q-10.26,0-16.43-9.41t-6.18-24q0-16.53,6.18-24.71a19.22,19.22,0,0,1,16-8.17q12.54,0,19.19,9.22t6.65,23.85Q697.87,153.64,694.36,161.05Z" transform="translate(-13.96 -13.68)"/><path d="M767.41,140.72q0-24.9-3.51-36.3T754.3,93q-7.78,0-12.82,14.91t-5,45.51q0,24.88,3.23,34.86t10.07,10q8.93,0,13.3-13.49T767.41,140.72Z" transform="translate(-13.96 -13.68)"/><path d="M751.83,78.78q7.41,0,11.49-3.71t4.09-10.54a15.12,15.12,0,0,0-3.32-9.69q-3.33-4.19-10.93-4.18-7,0-11.4,3.6t-4.37,10.83a14,14,0,0,0,3.61,9.6C743.4,77.42,747,78.78,751.83,78.78Z" transform="translate(-13.96 -13.68)"/><path d="M872.76,124.18q6-9.5,6-22.42,0-18.8-10.74-30.39T834.67,59.78q-15.58,0-25.94,5.13T793.44,78.78q-6.27,11.4-8.84,31.25T782,158a162,162,0,0,0,1.33,23.37q1.32,8.73,4.84,12.54c2.35,2.53,5.54,3.8,9.6,3.8a12,12,0,0,0,10.92-6q3.71-6,3.71-17.19,0-6.09-.67-13.4t-1.71-14.25c-.46-3.07-1-5.82-1.6-8.25a49.71,49.71,0,0,0,12,4.17,66.92,66.92,0,0,0,12.83,1.33,50.28,50.28,0,0,0,23.18-5.23A40.48,40.48,0,0,0,872.76,124.18Zm-23.18-8.54q-7.12,6.08-18.52,6.08-10.45,0-15.3-3.33c-3.23-2.21-4.84-5.8-4.84-10.73a32.59,32.59,0,0,1,2.94-14.16,22.58,22.58,0,0,1,8.65-9.69A25.2,25.2,0,0,1,836,80.3q10.63,0,15.67,5a17.14,17.14,0,0,1,5,12.64Q856.71,109.55,849.58,115.64Z" transform="translate(-13.96 -13.68)"/><path d="M988.57,175.11a13.49,13.49,0,0,0-1.43-6.46,10.89,10.89,0,0,0-3.61-4.09,8.68,8.68,0,0,0-4.84-1.42,25.73,25.73,0,0,0-9.69,2q-4.95,2-12.16,4.09t-19.19,2.09q-15.39,0-23.75-5.8Q906,160,905.56,147.77a58.45,58.45,0,0,0,9.67,3.59A59.28,59.28,0,0,0,931,153.45q14.63,0,25.84-4.75a40.58,40.58,0,0,0,17.57-13.59,35,35,0,0,0,6.37-21q0-15.21-9.5-24.61t-29.83-9.4q-17.3,0-30.88,7.79a54.39,54.39,0,0,0-21.28,22.32q-7.69,14.53-7.69,35.25,0,16.34,5.51,28.12t18,18q12.54,6.27,33.63,6.27,16.14,0,27.26-3.33T982.87,186Q988.57,180.81,988.57,175.11ZM912,112.79a28.7,28.7,0,0,1,11.11-8.65,37.62,37.62,0,0,1,16.06-3.32q9.5,0,14,4.27A14.45,14.45,0,0,1,957.6,116q0,8.37-8.17,14.07t-21.66,5.7q-9.32,0-14.54-2.95T908,124.38A18.9,18.9,0,0,1,912,112.79Z" transform="translate(-13.96 -13.68)"/><path d="M1076.06,81.91q-4.85-3.14-13-3.13a73.07,73.07,0,0,0-18.94,2.32,44.31,44.31,0,0,0,3.74-18.85c0-4.06-.82-7.22-2.47-9.5s-4.24-3.42-7.79-3.42a10.22,10.22,0,0,0-9,4.65,28,28,0,0,0-4.09,12.16,81.39,81.39,0,0,0-.41,15.08c-1.67-.31-3.46-.58-5.38-.83a88.92,88.92,0,0,0-11.12-.66q-8.92,0-14.25,4.08T988,95.31q0,6.84,4.75,10.07t13.49,3.23a57.53,57.53,0,0,0,19.23-2.94q-1.34,8-2.41,16.42-1.42,11.22-2.19,21.76t-.76,18.91q0,4.94.29,11a58.32,58.32,0,0,0,1.71,11.68,20.83,20.83,0,0,0,4.75,9.21c2.21,2.41,5.29,3.62,9.21,3.62q7.41,0,11.21-7t3.8-19.19q0-7.41-.76-16.73t-2.09-19.18q-1.32-9.89-2.94-19.1c-.74-4.21-1.49-8.09-2.26-11.67,2.3.36,4.64.65,7,.84q5.79.48,10.92.48,8.55,0,14.25-3.62a11.78,11.78,0,0,0,5.7-10.63Q1080.9,85,1076.06,81.91Z" transform="translate(-13.96 -13.68)"/><path class="cls-1" d="M737.88,235.09H719.8q-4.87,0-4.87,4.87v43.65q0,5,4.8,4.95c3.19,0,4.8-1.65,4.8-4.95V268.16h13.35q8.68,0,13.42-4.39T756,251.59q0-7.8-4.73-12.15T737.88,235.09Zm-1.5,25.5H724.53V242.66h11.85q10.35,0,10.35,8.93T736.38,260.59Z" transform="translate(-13.96 -13.68)"/><path class="cls-1" d="M794.65,269q0-8.55-4.54-13.5t-12.33-5a18.35,18.35,0,0,0-9.49,2.44,17.33,17.33,0,0,0-6.53,6.71,20.33,20.33,0,0,0-2.36,10,20.07,20.07,0,0,0,2.44,10.13,16.51,16.51,0,0,0,6.94,6.6,23.07,23.07,0,0,0,10.72,2.32,28.08,28.08,0,0,0,6.34-.79,19.52,19.52,0,0,0,6-2.43A4.4,4.4,0,0,0,794,283a3.68,3.68,0,0,0-.15-2.67A3,3,0,0,0,792,278.7a4.26,4.26,0,0,0-3.3.71A15.88,15.88,0,0,1,784,281.1a22.29,22.29,0,0,1-4.39.49q-10.2,0-11.25-9.83h22.65Q794.65,271.76,794.65,269Zm-26.25-2.63a11.35,11.35,0,0,1,3.08-6.9,9,9,0,0,1,6.67-2.55,8,8,0,0,1,6.19,2.44,11.26,11.26,0,0,1,2.51,7Z" transform="translate(-13.96 -13.68)"/><path class="cls-1" d="M824.57,280.46a13.91,13.91,0,0,0-1.72.3,10.05,10.05,0,0,1-2.25.23q-3.52,0-5.1-1.8a8,8,0,0,1-1.58-5.4V258.34h8q3.75,0,3.75-3.53t-3.75-3.52h-8v-6.83q0-4.72-4.64-4.72c-3.16,0-4.73,1.57-4.73,4.72v6.83h-3.9q-3.75,0-3.75,3.52t3.75,3.53h3.9v16q0,14.4,14.55,14.4a17.62,17.62,0,0,0,2.77-.26,21.32,21.32,0,0,0,2.55-.56,2.85,2.85,0,0,0,1.77-1.62,6.9,6.9,0,0,0,.48-2.66,4,4,0,0,0-.6-2.59A1.77,1.77,0,0,0,824.57,280.46Z" transform="translate(-13.96 -13.68)"/><path class="cls-1" d="M877.45,258.86l-8.18-1.72q-4.35-.9-6.15-2.51a5.53,5.53,0,0,1-1.8-4.32,6.78,6.78,0,0,1,2.93-5.7q2.93-2.18,8.1-2.17a26.65,26.65,0,0,1,6.15.67,21.32,21.32,0,0,1,5.62,2.25,4.17,4.17,0,0,0,3.42.64,3.57,3.57,0,0,0,2.13-1.8,4.26,4.26,0,0,0,.38-2.85,4.1,4.1,0,0,0-1.8-2.59,24.78,24.78,0,0,0-7.28-3.3,31.81,31.81,0,0,0-8.55-1.12,26.62,26.62,0,0,0-10.72,2,17.08,17.08,0,0,0-7.28,5.7,14.46,14.46,0,0,0-2.62,8.63q0,11.47,14.1,14.47l8.25,1.73q4.65,1,6.56,2.47a5,5,0,0,1,1.91,4.13,6.12,6.12,0,0,1-2.7,5.14q-2.7,2-8.62,2a32.41,32.41,0,0,1-7.73-.9,25.59,25.59,0,0,1-7-2.85,3.45,3.45,0,0,0-3.19-.56,3.6,3.6,0,0,0-2,2,4.84,4.84,0,0,0-.27,3.11,4.5,4.5,0,0,0,2.1,2.77,26.65,26.65,0,0,0,8.29,3.38,42.48,42.48,0,0,0,9.79,1.12,28.3,28.3,0,0,0,11.06-2,16.56,16.56,0,0,0,7.24-5.59,14.05,14.05,0,0,0,2.55-8.33,11.67,11.67,0,0,0-3.64-9Q884.87,260.44,877.45,258.86Z" transform="translate(-13.96 -13.68)"/><path class="cls-1" d="M921.77,280.46a13.91,13.91,0,0,0-1.72.3,10.05,10.05,0,0,1-2.25.23q-3.52,0-5.1-1.8a8,8,0,0,1-1.58-5.4V258.34h8q3.75,0,3.75-3.53t-3.75-3.52h-8v-6.83q0-4.72-4.65-4.72t-4.72,4.72v6.83h-3.9q-3.75,0-3.75,3.52t3.75,3.53h3.9v16q0,14.4,14.55,14.4a17.62,17.62,0,0,0,2.77-.26,21.32,21.32,0,0,0,2.55-.56,2.85,2.85,0,0,0,1.77-1.62,6.9,6.9,0,0,0,.48-2.66,4,4,0,0,0-.6-2.59A1.77,1.77,0,0,0,921.77,280.46Z" transform="translate(-13.96 -13.68)"/><path class="cls-1" d="M954.92,252.86a22.28,22.28,0,0,0-19.8,0,16.25,16.25,0,0,0-6.52,6.6,23.25,23.25,0,0,0,0,20.29,16.17,16.17,0,0,0,6.52,6.64,22.28,22.28,0,0,0,19.8,0,16.19,16.19,0,0,0,6.53-6.64,23.34,23.34,0,0,0,0-20.29A16.28,16.28,0,0,0,954.92,252.86Zm-3.15,25.69a9,9,0,0,1-13.5,0c-1.7-2-2.55-5-2.55-9s.85-7,2.55-9a9.16,9.16,0,0,1,13.5,0q2.55,3,2.55,9C954.32,273.54,953.47,276.52,951.77,278.55Z" transform="translate(-13.96 -13.68)"/><path class="cls-1" d="M992.57,250.54q-8.85.75-11.55,7.2v-2.33q0-4.72-4.57-4.72t-4.58,4.72v28.35q0,4.8,4.8,4.8t4.73-4.8V268.24q0-8.55,9.22-9.45l1.65-.15q4.28-.45,3.9-4.43T992.57,250.54Z" transform="translate(-13.96 -13.68)"/><path class="cls-1" d="M1034.27,269q0-8.55-4.54-13.5t-12.33-5a18.37,18.37,0,0,0-9.49,2.44,17.33,17.33,0,0,0-6.53,6.71,20.33,20.33,0,0,0-2.36,10,20.07,20.07,0,0,0,2.44,10.13,16.51,16.51,0,0,0,6.94,6.6,23.07,23.07,0,0,0,10.72,2.32,28.08,28.08,0,0,0,6.34-.79,19.42,19.42,0,0,0,6-2.43,4.4,4.4,0,0,0,2.13-2.51,3.68,3.68,0,0,0-.15-2.67,3,3,0,0,0-1.91-1.61,4.26,4.26,0,0,0-3.3.71,15.88,15.88,0,0,1-4.61,1.69,22.29,22.29,0,0,1-4.39.49q-10.2,0-11.25-9.83h22.65Q1034.27,271.76,1034.27,269ZM1008,266.36a11.35,11.35,0,0,1,3.08-6.9,9,9,0,0,1,6.67-2.55,8,8,0,0,1,6.19,2.44,11.26,11.26,0,0,1,2.51,7Z" transform="translate(-13.96 -13.68)"/></svg>